<?xml version="1.0" standalone="no"?>
<!DOCTYPE svg PUBLIC "-//W3C//DTD SVG 20010904//EN"
 "http://www.w3.org/TR/2001/REC-SVG-20010904/DTD/svg10.dtd">
<svg version="1.0" xmlns="http://www.w3.org/2000/svg"
 width="200.000000pt" height="200.000000pt" viewBox="0 0 200.000000 200.000000"
 preserveAspectRatio="xMidYMid meet">
<metadata>
Created by potrace 1.11, written by Peter Selinger 2001-2013
</metadata>
<g transform="translate(0.000000,200.000000) scale(0.100000,-0.100000)"
fill="#000000" stroke="none">
<path d="M1263 1690 c-140 -33 -280 -181 -309 -326 -5 -22 -9 -42 -10 -46 -1
-5 -2 -21 -3 -38 l-1 -29 -43 42 c-46 44 -127 89 -202 112 -29 8 -117 13 -269
14 l-226 2 0 -199 c0 -152 4 -211 16 -253 24 -81 68 -134 143 -171 63 -32 64
-32 260 -38 301 -9 301 -8 301 -340 l0 -220 80 0 80 0 0 288 c0 158 3 304 7
325 3 23 18 52 37 72 l31 33 130 1 c72 1 141 4 155 7 176 36 297 134 341 275
16 52 19 94 19 280 l0 219 -252 -1 c-139 -1 -267 -4 -285 -9z"/>
</g>
</svg>
